<svg xmlns="http://www.w3.org/2000/svg" width="130" height="115.556" viewBox="0 0 130 115.556">
  <path id="camera-movie-light" d="M83.056,18.056A14.444,14.444,0,1,0,97.5,32.5,14.444,14.444,0,0,0,83.056,18.056Zm0,21.667A7.222,7.222,0,1,1,90.278,32.5,7.222,7.222,0,0,1,83.056,39.722ZM39.722,18.056A14.444,14.444,0,1,0,54.167,32.5,14.444,14.444,0,0,0,39.722,18.056Zm0,21.667A7.222,7.222,0,1,1,46.944,32.5,7.222,7.222,0,0,1,39.722,39.722ZM124.2,57.778a5.794,5.794,0,0,0-3.3,1.036L101.111,72.581v-3.97A10.775,10.775,0,0,0,98.1,61.147,32.392,32.392,0,1,0,61.389,8.434,32.375,32.375,0,1,0,19.525,57.778H7.222A7.222,7.222,0,0,0,0,65v7.222a7.222,7.222,0,0,0,7.222,7.222H21.667v25.278A10.833,10.833,0,0,0,32.5,115.556H90.278a10.833,10.833,0,0,0,10.833-10.833v-3.959L120.9,114.517a5.792,5.792,0,0,0,9.1-4.658V63.472a5.743,5.743,0,0,0-5.8-5.694ZM93.889,104.722a3.611,3.611,0,0,1-3.611,3.611H32.5a3.611,3.611,0,0,1-3.611-3.611v-32.5H7.222V65H90.278a3.611,3.611,0,0,1,3.611,3.611ZM83.056,57.778H39.722A25.278,25.278,0,1,1,56.555,13.8l4.834,4.354L66.223,13.8A25.228,25.228,0,1,1,83.056,57.778Zm39.722,49.251L101.111,91.966V81.358L122.778,66.3Z" fill="#f4f4f4"/>
</svg>
