<svg xmlns="http://www.w3.org/2000/svg" width="120" height="90" viewBox="0 0 120 90">
  <path id="film-light" d="M114.375,64H112.5v4.688a2.821,2.821,0,0,1-2.812,2.813h-9.375A2.821,2.821,0,0,1,97.5,68.688V64h-75v4.688A2.821,2.821,0,0,1,19.688,71.5H10.313A2.821,2.821,0,0,1,7.5,68.688V64H5.625A5.612,5.612,0,0,0,0,69.625v78.75A5.612,5.612,0,0,0,5.625,154H7.5v-4.687a2.821,2.821,0,0,1,2.813-2.812h9.375a2.821,2.821,0,0,1,2.813,2.813V154h75v-4.687a2.821,2.821,0,0,1,2.813-2.812h9.375a2.821,2.821,0,0,1,2.813,2.813V154h1.875A5.612,5.612,0,0,0,120,148.375V69.625A5.612,5.612,0,0,0,114.375,64ZM22.5,136.188A2.821,2.821,0,0,1,19.688,139H10.313A2.821,2.821,0,0,1,7.5,136.188v-9.375A2.821,2.821,0,0,1,10.313,124h9.375a2.821,2.821,0,0,1,2.813,2.813Zm0-22.5a2.821,2.821,0,0,1-2.812,2.813H10.313A2.821,2.821,0,0,1,7.5,113.688v-9.375a2.821,2.821,0,0,1,2.813-2.812h9.375a2.821,2.821,0,0,1,2.813,2.813Zm0-22.5A2.821,2.821,0,0,1,19.688,94H10.313A2.821,2.821,0,0,1,7.5,91.188V81.813A2.821,2.821,0,0,1,10.313,79h9.375A2.821,2.821,0,0,1,22.5,81.813Zm67.5,52.5a2.821,2.821,0,0,1-2.812,2.813H32.813A2.821,2.821,0,0,1,30,143.688V115.563a2.821,2.821,0,0,1,2.813-2.812H87.188A2.821,2.821,0,0,1,90,115.563Zm0-41.25a2.821,2.821,0,0,1-2.812,2.813H32.813A2.821,2.821,0,0,1,30,102.438V74.313A2.821,2.821,0,0,1,32.813,71.5H87.188A2.821,2.821,0,0,1,90,74.313Zm22.5,33.75A2.821,2.821,0,0,1,109.688,139h-9.375a2.821,2.821,0,0,1-2.812-2.812v-9.375A2.821,2.821,0,0,1,100.313,124h9.375a2.821,2.821,0,0,1,2.813,2.813Zm0-22.5a2.821,2.821,0,0,1-2.812,2.813h-9.375a2.821,2.821,0,0,1-2.812-2.812v-9.375a2.821,2.821,0,0,1,2.813-2.812h9.375a2.821,2.821,0,0,1,2.813,2.813Zm0-22.5A2.821,2.821,0,0,1,109.688,94h-9.375A2.821,2.821,0,0,1,97.5,91.188V81.813A2.821,2.821,0,0,1,100.313,79h9.375a2.821,2.821,0,0,1,2.813,2.813Z" transform="translate(0 -64)" fill="#f4f4f4"/>
</svg>
