<svg xmlns="http://www.w3.org/2000/svg" width="120" height="120" viewBox="0 0 120 120">
  <path id="music-light" d="M112.838,0a6.886,6.886,0,0,0-2.168.352l-68.152,22.5A7.48,7.48,0,0,0,37.5,30V87.363a24.993,24.993,0,0,0-15-4.863C10.078,82.5,0,90.893,0,101.25S10.078,120,22.5,120,45,111.607,45,101.25V60l67.5-22.5V72.363a24.993,24.993,0,0,0-15-4.863C85.078,67.5,75,75.893,75,86.25S85.078,105,97.5,105,120,96.607,120,86.25V7.5A7.346,7.346,0,0,0,112.838,0ZM22.5,112.5c-8.13,0-15-5.156-15-11.25S14.37,90,22.5,90s15,5.156,15,11.25S30.63,112.5,22.5,112.5Zm75-15c-8.13,0-15-5.156-15-11.25S89.37,75,97.5,75s15,5.156,15,11.25S105.63,97.5,97.5,97.5Zm15-67.9L45,52.1V30h-.131v-.028L112.5,7.645Z" fill="#f4f4f4"/>
</svg>
